<svg width="416" height="200" viewBox="0 0 416 200" fill="none" xmlns="http://www.w3.org/2000/svg">
<path d="M152 100C152 128.719 128.719 152 100 152C71.2812 152 48 128.719 48 100C48 71.2812 71.2812 48 100 48C128.719 48 152 71.2812 152 100Z" stroke="white" stroke-width="10"/>
<line x1="144.933" y1="151.772" x2="136.772" y2="143.067" stroke="white" stroke-width="10" stroke-linecap="round"/>
<path d="M175.144 153.477C168.961 153.477 165.869 150.067 165.869 143.248V127.242H170.162V143.195C170.162 145.492 170.621 147.188 171.54 148.283C172.494 149.378 173.978 149.926 175.992 149.926C178.183 149.926 179.967 149.202 181.345 147.753C182.723 146.269 183.412 144.308 183.412 141.87V127.242H187.705V153H183.518V148.654C182.705 150.209 181.557 151.41 180.073 152.258C178.624 153.071 176.981 153.477 175.144 153.477Z" fill="white"/>
<path d="M195.207 120.829V116.006H200.507V120.829H195.207ZM195.737 153V127.242H200.03V153H195.737Z" fill="white"/>
<path d="M218.973 153.477C216.394 153.477 214.168 152.929 212.295 151.834C210.423 150.703 208.974 149.131 207.949 147.117C206.96 145.068 206.465 142.683 206.465 139.962C206.465 135.863 207.578 132.648 209.804 130.316C212.03 127.949 215.087 126.765 218.973 126.765C220.563 126.765 222.136 127.048 223.69 127.613C225.245 128.178 226.535 128.973 227.559 129.998L226.075 133.125C225.051 132.136 223.92 131.411 222.683 130.952C221.482 130.493 220.334 130.263 219.238 130.263C216.553 130.263 214.486 131.111 213.037 132.807C211.589 134.468 210.864 136.87 210.864 140.015C210.864 143.089 211.589 145.527 213.037 147.329C214.486 149.096 216.553 149.979 219.238 149.979C220.334 149.979 221.482 149.749 222.683 149.29C223.92 148.831 225.051 148.089 226.075 147.064L227.559 150.191C226.535 151.216 225.227 152.028 223.637 152.629C222.083 153.194 220.528 153.477 218.973 153.477Z" fill="white"/>
<path d="M232.589 153V115.635H236.882V138.69H236.988L248.913 127.242H254.372L241.44 139.644L255.485 153H250.026L236.988 140.916H236.882V153H232.589Z" fill="white"/>
<path d="M267.315 153.477C265.301 153.477 263.393 153.194 261.591 152.629C259.789 152.064 258.305 151.269 257.139 150.244L258.517 147.223C259.789 148.248 261.184 149.007 262.704 149.502C264.258 149.961 265.831 150.191 267.421 150.191C269.435 150.191 270.954 149.82 271.979 149.078C273.003 148.336 273.516 147.329 273.516 146.057C273.516 145.068 273.18 144.29 272.509 143.725C271.837 143.124 270.777 142.665 269.329 142.347L264.506 141.287C260.124 140.333 257.934 138.072 257.934 134.503C257.934 132.171 258.852 130.298 260.69 128.885C262.562 127.472 265 126.765 268.004 126.765C269.77 126.765 271.449 127.048 273.039 127.613C274.664 128.143 276.007 128.938 277.067 129.998L275.636 133.019C274.611 132.065 273.41 131.341 272.032 130.846C270.689 130.316 269.346 130.051 268.004 130.051C266.025 130.051 264.523 130.44 263.499 131.217C262.474 131.994 261.962 133.019 261.962 134.291C261.962 136.27 263.269 137.542 265.884 138.107L270.707 139.114C272.968 139.609 274.682 140.404 275.848 141.499C277.014 142.559 277.597 144.008 277.597 145.845C277.597 148.212 276.66 150.085 274.788 151.463C272.915 152.806 270.424 153.477 267.315 153.477Z" fill="white"/>
<path d="M294.216 153.477C291.177 153.477 288.898 152.682 287.379 151.092C285.859 149.467 285.1 147.135 285.1 144.096V130.581H280.065V127.242H285.1V119.345H289.393V127.242H297.555V130.581H289.393V143.672C289.393 145.686 289.817 147.223 290.665 148.283C291.513 149.308 292.891 149.82 294.799 149.82C295.364 149.82 295.929 149.749 296.495 149.608C297.06 149.467 297.572 149.325 298.032 149.184L298.774 152.47C298.314 152.717 297.643 152.947 296.76 153.159C295.876 153.371 295.028 153.477 294.216 153.477Z" fill="white"/>
<path d="M312.857 153.477C310.348 153.477 308.175 152.929 306.338 151.834C304.501 150.739 303.07 149.202 302.045 147.223C301.056 145.209 300.561 142.842 300.561 140.121C300.561 137.4 301.056 135.051 302.045 133.072C303.07 131.058 304.501 129.503 306.338 128.408C308.175 127.313 310.348 126.765 312.857 126.765C315.33 126.765 317.486 127.313 319.323 128.408C321.196 129.503 322.627 131.058 323.616 133.072C324.641 135.051 325.153 137.4 325.153 140.121C325.153 142.842 324.641 145.209 323.616 147.223C322.627 149.202 321.196 150.739 319.323 151.834C317.486 152.929 315.33 153.477 312.857 153.477ZM312.857 150.032C315.26 150.032 317.185 149.184 318.634 147.488C320.083 145.757 320.807 143.301 320.807 140.121C320.807 136.906 320.083 134.45 318.634 132.754C317.185 131.058 315.26 130.21 312.857 130.21C310.419 130.21 308.476 131.058 307.027 132.754C305.614 134.45 304.907 136.906 304.907 140.121C304.907 143.301 305.614 145.757 307.027 147.488C308.476 149.184 310.419 150.032 312.857 150.032Z" fill="white"/>
<path d="M331.601 153V127.242H335.788V131.853C337.166 128.744 339.993 127.03 344.268 126.712L345.805 126.553L346.123 130.263L343.42 130.581C340.982 130.793 339.127 131.57 337.855 132.913C336.583 134.22 335.947 136.022 335.947 138.319V153H331.601Z" fill="white"/>
<path d="M361.893 153.477C357.83 153.477 354.614 152.293 352.247 149.926C349.879 147.523 348.696 144.273 348.696 140.174C348.696 137.524 349.226 135.192 350.286 133.178C351.346 131.129 352.795 129.556 354.632 128.461C356.505 127.33 358.66 126.765 361.098 126.765C364.596 126.765 367.334 127.896 369.313 130.157C371.292 132.383 372.281 135.457 372.281 139.379V141.022H352.883C353.024 143.955 353.872 146.198 355.427 147.753C356.982 149.272 359.137 150.032 361.893 150.032C363.448 150.032 364.932 149.802 366.345 149.343C367.758 148.848 369.101 148.053 370.373 146.958L371.857 149.979C370.691 151.074 369.207 151.94 367.405 152.576C365.603 153.177 363.766 153.477 361.893 153.477ZM361.204 129.945C358.766 129.945 356.84 130.705 355.427 132.224C354.014 133.743 353.183 135.74 352.936 138.213H368.571C368.465 135.598 367.776 133.567 366.504 132.118C365.267 130.669 363.5 129.945 361.204 129.945Z" fill="white"/>
</svg>
